<svg xmlns="http://www.w3.org/2000/svg" viewBox="0 0 145 145">
    <defs>
        <linearGradient x1="100%" y1="100%" x2="12%" y2="0%" id="neon-grad-a">
            <stop stop-color="#62F755" offset="0%"/>
            <stop stop-color="#8FF986" stop-opacity="0" offset="100%"/>
        </linearGradient>
        <linearGradient x1="100%" y1="100%" x2="40.6%" y2="76.9%" id="neon-grad-b">
            <stop stop-color="#000000" stop-opacity="0.9" offset="0%"/>
            <stop stop-color="#1A1A1A" stop-opacity="0" offset="100%"/>
        </linearGradient>
    </defs>
    <g>
        <path d="M0,24.91C0,11.15 11.15,0 24.91,0 L119.56,0 C133.32,0 144.47,11.15 144.47,24.91 L144.47,105.41 C144.47,119.64 126.46,125.82 117.73,114.59 L90.42,79.45 L90.42,122.05 C90.42,134.43 80.38,144.47 68,144.47 L24.91,144.47 C11.15,144.47 0,133.32 0,119.56 L0,24.91 Z M24.91,19.93 C22.16,19.93 19.93,22.16 19.93,24.91 L19.93,119.56 C19.93,122.31 22.16,124.55 24.91,124.55 L68.75,124.55 C70.12,124.55 70.49,123.43 70.49,122.05 L70.49,64.93 C70.49,50.7 88.5,44.52 97.24,55.76 L124.55,90.88 L124.55,24.91 C124.55,22.16 124.8,19.93 122.05,19.93 L24.91,19.93 Z" fill="#00E0D9"/>
        
        <path d="M0,24.91C0,11.15 11.15,0 24.91,0 L119.56,0 C133.32,0 144.47,11.15 144.47,24.91 L144.47,105.41 C144.47,119.64 126.46,125.82 117.73,114.59 L90.42,79.45 L90.42,122.05 C90.42,134.43 80.38,144.47 68,144.47 L24.91,144.47 C11.15,144.47 0,133.32 0,119.56 L0,24.91 Z M24.91,19.93 C22.16,19.93 19.93,22.16 19.93,24.91 L19.93,119.56 C19.93,122.31 22.16,124.55 24.91,124.55 L68.75,124.55 C70.12,124.55 70.49,123.43 70.49,122.05 L70.49,64.93 C70.49,50.7 88.5,44.52 97.24,55.76 L124.55,90.88 L124.55,24.91 C124.55,22.16 124.8,19.93 122.05,19.93 L24.91,19.93 Z" fill="url(#neon-grad-a)"/>
        
        <path d="M0,24.91C0,11.15 11.15,0 24.91,0 L119.56,0 C133.32,0 144.47,11.15 144.47,24.91 L144.47,105.41 C144.47,119.64 126.46,125.82 117.73,114.59 L90.42,79.45 L90.42,122.05 C90.42,134.43 80.38,144.47 68,144.47 L24.91,144.47 C11.15,144.47 0,133.32 0,119.56 L0,24.91 Z M24.91,19.93 C22.16,19.93 19.93,22.16 19.93,24.91 L19.93,119.56 C19.93,122.31 22.16,124.55 24.91,124.55 L68.75,124.55 C70.12,124.55 70.49,123.43 70.49,122.05 L70.49,64.93 C70.49,50.7 88.5,44.52 97.24,55.76 L124.55,90.88 L124.55,24.91 C124.55,22.16 124.8,19.93 122.05,19.93 L24.91,19.93 Z" fillOpacity="0.4" fill="url(#neon-grad-b)"/>
        
        <path d="M119.56,0 C133.32,0 144.47,11.15 144.47,24.91 L144.47,105.41 C144.47,119.64 126.46,125.82 117.73,114.59 L90.42,79.45 L90.42,122.05 C90.42,134.43 80.38,144.47 68,144.47 C68.66,144.47 69.29,144.21 69.76,143.74 C70.23,143.28 70.49,124.64 70.49,123.98 L70.49,64.93 C70.49,50.7 88.5,44.52 97.24,55.76 L124.55,90.88 L124.55,4.98 C124.55,2.23 122.31,0 119.56,0 Z" fill="#63F655"/>
    </g>
</svg>