<?xml version="1.0" standalone="no"?>
<!DOCTYPE svg PUBLIC "-//W3C//DTD SVG 20010904//EN"
 "http://www.w3.org/TR/2001/REC-SVG-20010904/DTD/svg10.dtd">
<svg version="1.0" xmlns="http://www.w3.org/2000/svg"
 width="512.000000pt" height="512.000000pt" viewBox="0 0 512.000000 512.000000"
 preserveAspectRatio="xMidYMid meet">

<g transform="translate(0.000000,512.000000) scale(0.100000,-0.100000)"
fill="#000000" stroke="none">
<path d="M69 4957 c-19 -12 -42 -38 -51 -57 -17 -33 -18 -147 -18 -1955 0
-1808 1 -1922 18 -1954 9 -19 30 -44 45 -55 28 -21 37 -21 970 -26 l942 -5 3
-232 2 -233 -32 0 c-47 -1 -111 -33 -136 -67 -34 -48 -37 -100 -10 -152 44
-85 3 -81 758 -81 755 0 712 -5 758 81 27 52 24 104 -10 152 -25 34 -89 66
-136 67 l-32 0 2 233 3 232 942 5 c933 5 942 5 970 26 15 11 36 36 45 55 17
32 18 146 18 1954 0 1808 -1 1922 -18 1955 -9 19 -32 45 -51 57 l-34 23 -2457
0 -2457 0 -34 -23z m4751 -1622 l0 -1345 -2260 0 -2260 0 0 1345 0 1345 2260
0 2260 0 0 -1345z m0 -1885 l0 -240 -2260 0 -2260 0 0 240 0 240 2260 0 2260
0 0 -240z m-1980 -775 l0 -235 -280 0 -280 0 0 235 0 235 280 0 280 0 0 -235z"/>
<path d="M1735 4032 c-17 -11 -40 -32 -50 -48 -19 -27 -20 -51 -23 -454 -2
-273 1 -448 8 -490 13 -80 57 -172 110 -233 56 -64 178 -142 258 -167 84 -26
221 -28 313 -5 150 39 291 151 357 283 l37 76 0 489 0 488 -42 40 c-38 35 -48
39 -94 39 -61 0 -111 -27 -137 -73 -15 -29 -18 -80 -22 -477 -4 -325 -8 -451
-17 -466 -37 -64 -137 -115 -226 -115 -78 0 -121 16 -177 68 -71 64 -70 53
-70 528 0 460 1 453 -54 504 -36 34 -127 41 -171 13z"/>
<path d="M3232 4030 c-18 -11 -41 -34 -52 -52 -19 -32 -20 -52 -20 -644 l0
-611 23 -33 c35 -52 68 -72 119 -72 56 0 99 22 130 64 l23 33 0 620 0 620 -23
33 c-13 18 -36 39 -52 47 -41 21 -109 19 -148 -5z"/>
</g>
</svg>
